<?xml version="1.0" standalone="no"?>
<!DOCTYPE svg PUBLIC "-//W3C//DTD SVG 20010904//EN"
 "http://www.w3.org/TR/2001/REC-SVG-20010904/DTD/svg10.dtd">
<svg version="1.0" xmlns="http://www.w3.org/2000/svg"
 width="310.000000pt" height="163.000000pt" viewBox="0 0 310.000000 163.000000"
 preserveAspectRatio="xMidYMid meet">
<metadata>
Created by potrace 1.15, written by Peter Selinger 2001-2017
</metadata>
<g transform="translate(0.000000,163.000000) scale(0.100000,-0.100000)"
fill="#000000" stroke="none">
<path d="M645 740 c7 -11 -189 -296 -208 -303 -12 -4 50 -47 69 -47 5 0 31 13
57 30 l47 29 -25 47 c-14 26 -22 50 -19 53 4 3 9 1 11 -6 7 -18 45 -65 49 -60
3 2 0 16 -5 31 -13 32 -5 34 18 4 18 -21 18 -21 34 21 30 73 18 191 -20 205
-8 3 -11 1 -8 -4z"/>
</g>
</svg>
