<?xml version="1.0" standalone="no"?>
<!DOCTYPE svg PUBLIC "-//W3C//DTD SVG 20010904//EN"
 "http://www.w3.org/TR/2001/REC-SVG-20010904/DTD/svg10.dtd">
<svg version="1.0" xmlns="http://www.w3.org/2000/svg"
 width="225.000000pt" height="225.000000pt" viewBox="0 0 225.000000 225.000000"
 preserveAspectRatio="xMidYMid meet">
<metadata>
Created by potrace 1.15, written by Peter Selinger 2001-2017
</metadata>
<g transform="translate(0.000000,225.000000) scale(0.100000,-0.100000)"
fill="#000000" stroke="none">
<path d="M118 1249 c9 -9 86 -73 170 -143 l154 -126 105 0 c87 0 104 2 94 14
-6 7 -78 69 -161 137 l-150 124 -115 5 c-106 5 -113 4 -97 -11z"/>
<path d="M536 1263 c-99 -3 -136 -12 -136 -33 0 -4 23 -26 50 -49 48 -40 52
-42 73 -28 23 16 136 117 127 114 -3 0 -54 -3 -114 -4z"/>
<path d="M740 1125 l0 -145 30 0 c28 0 29 1 32 58 l3 57 55 0 55 0 3 -57 c3
-57 4 -58 32 -58 l30 0 0 145 0 145 -30 0 -30 0 0 -60 0 -61 -57 3 -58 3 -3
58 c-3 56 -4 57 -32 57 l-30 0 0 -145z"/>
<path d="M1040 1126 l0 -146 55 0 c31 0 71 7 90 15 58 24 70 91 24 134 -13 12
-17 21 -10 26 17 10 13 60 -7 85 -14 17 -32 23 -85 27 l-67 6 0 -147z"/>
<path d="M1342 1250 c-95 -58 -95 -192 0 -250 40 -24 107 -26 154 -4 99 47 99
211 0 258 -47 22 -114 20 -154 -4z m138 -65 c53 -56 15 -145 -61 -145 -46 0
-79 36 -79 85 0 78 88 115 140 60z"/>
<path d="M1635 1245 c-48 -47 -25 -113 51 -145 30 -13 44 -25 44 -39 0 -33
-46 -41 -94 -16 -16 9 -30 14 -31 13 -2 -2 0 -17 2 -35 5 -34 22 -43 85 -43
51 0 84 17 98 51 22 51 3 88 -60 122 -48 25 -63 53 -34 64 9 3 29 2 45 -4 25
-10 27 -9 31 18 5 33 -5 39 -68 39 -34 0 -51 -6 -69 -25z"/>
<path d="M172 1047 l-73 -62 107 -3 c98 -2 109 -1 130 19 l23 22 -52 43 c-29
24 -54 43 -57 43 -3 0 -38 -28 -78 -62z"/>
<path d="M1863 1103 c-22 -4 -23 -9 -23 -95 0 -67 3 -89 13 -86 6 3 13 18 15
35 3 26 7 29 27 26 29 -6 65 28 65 62 0 14 -9 34 -20 45 -20 20 -32 22 -77 13z"/>
</g>
</svg>
