<?xml version="1.0" standalone="no"?>
<!DOCTYPE svg PUBLIC "-//W3C//DTD SVG 20010904//EN"
 "http://www.w3.org/TR/2001/REC-SVG-20010904/DTD/svg10.dtd">
<svg version="1.0" xmlns="http://www.w3.org/2000/svg"
 width="225.000000pt" height="225.000000pt" viewBox="0 0 225.000000 225.000000"
 preserveAspectRatio="xMidYMid meet">
<metadata>
Created by potrace 1.15, written by Peter Selinger 2001-2017
</metadata>
<g transform="translate(0.000000,225.000000) scale(0.100000,-0.100000)"
fill="#000000" stroke="none">
<path d="M1169 1567 c17 -17 14 -34 -14 -75 -22 -33 -33 -72 -20 -72 3 0 14 9
25 20 28 28 44 26 36 -6 -19 -73 -90 -116 -177 -107 -34 3 -64 1 -77 -6 -18
-10 -26 -6 -58 21 -21 18 -35 27 -30 21 5 -9 -1 -13 -22 -13 -16 0 -35 -7 -42
-15 -11 -13 -15 -13 -21 -3 -6 8 -9 -1 -9 -24 0 -27 7 -44 30 -66 28 -28 33
-62 9 -62 -5 0 -9 -9 -9 -20 0 -25 5 -25 29 -2 11 9 27 23 35 30 21 17 20 22
-14 61 -28 31 -29 35 -13 47 22 16 37 18 28 3 -4 -6 -1 -10 6 -8 34 4 39 0 28
-28 -5 -14 -7 -40 -3 -56 5 -22 1 -35 -18 -55 -19 -20 -25 -40 -27 -77 -1 -27
-4 -58 -7 -67 -7 -24 26 -78 48 -78 24 0 23 12 -2 33 -18 15 -20 27 -18 75 3
54 5 58 37 74 37 18 53 16 33 -4 -17 -17 -16 -20 23 -69 19 -24 35 -48 35 -54
1 -18 38 -55 54 -55 21 0 20 16 -2 32 -27 20 -82 100 -82 119 0 9 11 24 25 33
14 10 31 28 37 41 10 22 18 24 97 28 123 7 144 11 185 35 21 12 44 22 52 22
18 0 53 -74 54 -112 0 -18 5 -28 15 -28 23 0 18 32 -15 102 -28 58 -33 63 -67
68 l-38 5 39 19 38 19 47 -48 c25 -27 44 -51 41 -54 -3 -3 6 -7 18 -9 31 -5
23 11 -47 83 -48 49 -57 55 -95 55 -38 0 -41 2 -41 28 -1 15 4 30 9 34 6 4 5
12 -2 21 -10 12 -9 16 4 21 15 6 15 9 -3 29 -11 12 -18 28 -16 35 3 6 -2 12
-11 12 -8 0 -20 9 -26 19 -10 20 -36 32 -79 37 -17 2 -21 0 -12 -9z"/>
<path d="M572 820 c-28 -12 -52 -66 -45 -103 12 -63 102 -89 148 -42 18 17 25
35 25 62 -1 72 -60 110 -128 83z"/>
<path d="M900 741 l0 -91 46 0 c37 0 51 5 75 29 60 61 25 137 -68 148 l-53 6
0 -92z"/>
<path d="M1320 740 l0 -90 41 0 c22 0 49 5 60 10 24 13 26 65 3 74 -16 6 -16
8 0 24 9 10 16 24 16 30 0 20 -44 42 -82 42 l-38 0 0 -90z"/>
<path d="M1660 740 c0 -76 2 -90 16 -90 14 0 16 10 12 65 -2 36 -1 65 4 65 4
0 23 -29 43 -65 25 -45 43 -65 56 -65 17 0 19 8 19 90 0 72 -3 90 -15 90 -10
0 -15 -16 -17 -66 l-3 -66 -38 66 c-27 45 -45 66 -58 66 -17 0 -19 -8 -19 -90z"/>
</g>
</svg>
