<?xml version="1.0" standalone="no"?>
<!DOCTYPE svg PUBLIC "-//W3C//DTD SVG 20010904//EN"
 "http://www.w3.org/TR/2001/REC-SVG-20010904/DTD/svg10.dtd">
<svg version="1.0" xmlns="http://www.w3.org/2000/svg"
 width="251.000000pt" height="201.000000pt" viewBox="0 0 251.000000 201.000000"
 preserveAspectRatio="xMidYMid meet">
<metadata>
Created by potrace 1.15, written by Peter Selinger 2001-2017
</metadata>
<g transform="translate(0.000000,201.000000) scale(0.100000,-0.100000)"
fill="#000000" stroke="none">
<path d="M2186 1281 c-3 -5 -5 -56 -3 -115 2 -92 4 -106 19 -106 12 0 18 10
20 38 l3 37 23 -37 c14 -23 31 -38 43 -38 25 0 24 6 -7 47 l-26 34 27 34 c25
34 25 35 5 35 -12 0 -32 -12 -45 -27 l-24 -28 -1 68 c0 51 -3 67 -14 67 -8 0
-17 -4 -20 -9z"/>
<path d="M192 1268 c-23 -23 -12 -50 45 -109 l56 -59 -41 0 c-43 0 -72 -19
-72 -49 0 -31 22 -41 92 -41 68 0 69 1 89 34 11 19 36 44 55 55 33 20 34 21
34 89 0 73 -10 92 -47 92 -28 0 -43 -27 -43 -77 l0 -37 -58 57 c-57 56 -87 68
-110 45z"/>
<path d="M492 1268 c-7 -7 -12 -41 -12 -80 0 -68 1 -69 34 -89 19 -11 44 -36
55 -55 20 -34 21 -34 90 -34 59 0 72 3 81 19 5 11 10 24 10 30 0 22 -33 41
-71 41 -21 0 -39 2 -39 4 0 3 25 31 55 62 56 59 65 80 43 102 -24 24 -54 12
-108 -43 -30 -30 -58 -55 -62 -55 -4 0 -7 21 -6 46 1 47 -11 64 -42 64 -9 0
-21 -5 -28 -12z"/>
<path d="M880 1170 c0 -102 1 -110 19 -110 17 0 20 8 23 48 l3 47 28 -47 c22
-37 35 -48 53 -48 l25 0 -31 46 -32 45 26 24 c53 49 19 105 -64 105 l-50 0 0
-110z"/>
<path d="M1680 1169 l0 -111 56 4 c40 3 61 10 70 23 19 25 18 60 -2 79 -14 14
-14 18 0 38 20 29 20 34 -4 58 -15 15 -33 20 -70 20 l-50 0 0 -111z"/>
<path d="M1083 1208 c-42 -20 -54 -96 -21 -135 18 -22 85 -16 108 9 30 33 27
91 -6 117 -29 23 -48 25 -81 9z"/>
<path d="M261 980 c-46 -4 -67 -10 -75 -22 -19 -30 4 -53 58 -56 25 -2 46 -6
46 -10 0 -4 -25 -32 -55 -62 -57 -57 -66 -78 -39 -104 26 -26 42 -19 105 45
32 33 60 59 60 57 1 -2 2 -22 3 -46 3 -56 26 -80 61 -64 23 11 25 16 25 82 l0
70 -40 26 c-22 14 -42 34 -45 44 -11 35 -37 45 -104 40z"/>
<path d="M573 963 c-9 -27 -45 -64 -70 -74 -21 -8 -23 -15 -23 -83 0 -65 3
-77 20 -86 42 -22 72 24 61 93 -2 16 15 4 70 -48 32 -30 64 -55 72 -55 17 0
47 31 47 49 0 7 -27 41 -61 76 l-61 64 52 3 c60 3 84 24 64 56 -9 13 -28 18
-88 20 -66 2 -77 0 -83 -15z"/>
<path d="M2303 942 c-6 -4 -13 -20 -15 -37 -2 -24 -9 -30 -35 -36 -44 -9 -61
-25 -69 -64 -12 -66 24 -108 74 -86 16 8 27 9 31 2 4 -5 12 -6 19 -2 9 6 12
38 10 119 -2 81 -6 109 -15 104z"/>
<path d="M891 844 c-29 -37 -27 -79 5 -111 66 -66 163 36 108 115 -23 33 -86
31 -113 -4z"/>
<path d="M1514 849 c-27 -30 -24 -97 7 -122 27 -21 71 -17 101 10 23 21 25 95
2 117 -23 24 -87 21 -110 -5z"/>
<path d="M1870 854 c0 -12 7 -15 27 -11 15 3 33 3 40 0 25 -10 13 -31 -21 -37
-42 -8 -60 -28 -52 -60 7 -29 37 -41 64 -27 13 7 22 7 30 -1 19 -19 32 3 32
58 0 80 -10 94 -70 94 -39 0 -50 -3 -50 -16z"/>
</g>
</svg>
