<?xml version="1.0" standalone="no"?>
<!DOCTYPE svg PUBLIC "-//W3C//DTD SVG 20010904//EN"
 "http://www.w3.org/TR/2001/REC-SVG-20010904/DTD/svg10.dtd">
<svg version="1.0" xmlns="http://www.w3.org/2000/svg"
 width="368.000000pt" height="137.000000pt" viewBox="0 0 368.000000 137.000000"
 preserveAspectRatio="xMidYMid meet">
<metadata>
Created by potrace 1.15, written by Peter Selinger 2001-2017
</metadata>
<g transform="translate(0.000000,137.000000) scale(0.100000,-0.100000)"
fill="#000000" stroke="none">
<path d="M0 685 l0 -685 1840 0 1840 0 0 685 0 685 -1840 0 -1840 0 0 -685z
m3228 155 c-46 -88 -85 -160 -88 -160 -3 0 -20 30 -38 66 -28 55 -31 69 -20
80 16 15 222 174 226 174 2 0 -34 -72 -80 -160z m-782 -130 l23 0 3 -137 3
-138 53 -3 c50 -3 52 -4 52 -33 l0 -29 -76 0 c-119 0 -114 -8 -114 186 0 147
2 165 16 160 9 -3 26 -6 40 -6z m462 -16 c2 -17 -4 -23 -27 -27 -38 -8 -43
-37 -7 -37 16 0 27 -7 31 -21 8 -25 -8 -39 -36 -32 -18 5 -19 -2 -19 -101 l0
-106 -40 0 -40 0 0 105 c0 95 -2 106 -17 103 -27 -5 -31 42 -4 49 12 3 22 17
26 34 10 46 31 60 84 57 38 -2 47 -7 49 -24z m-2372 6 c32 0 34 -2 34 -33 l0
-32 -62 0 c-82 0 -83 -16 -3 -65 71 -43 92 -77 79 -128 -14 -54 -50 -75 -129
-74 -78 1 -85 5 -85 41 l0 27 64 -4 c53 -3 64 -1 70 13 8 21 -8 41 -48 62 -60
30 -86 63 -86 108 0 29 6 47 20 60 21 19 77 35 98 29 8 -2 29 -4 48 -4z m1014
-159 l0 -170 -90 0 c-96 0 -112 7 -131 56 -13 36 -11 109 5 148 17 40 46 57
98 59 37 1 38 2 38 38 0 38 0 38 40 38 l40 0 0 -169z m680 0 l0 -169 -82 0
c-45 0 -90 4 -99 8 -28 15 -42 65 -37 135 5 85 33 118 102 119 l46 1 0 38 c0
36 1 37 35 37 l35 0 0 -169z m-1520 119 c0 -25 4 -30 25 -30 34 0 37 -47 3
-52 -22 -3 -23 -8 -23 -78 0 -74 0 -75 28 -78 21 -3 27 -9 27 -28 0 -22 -4
-24 -49 -24 -72 0 -81 13 -81 121 0 80 -2 90 -17 87 -13 -2 -19 5 -21 25 -3
22 1 27 17 27 16 0 21 6 21 24 0 24 10 29 58 35 7 0 12 -11 12 -29z m253 -41
c37 -17 47 -50 47 -154 l0 -93 -85 -1 c-91 0 -109 8 -121 55 -15 59 29 104
101 104 18 0 25 5 25 20 0 18 -7 20 -55 20 -51 0 -55 2 -55 24 0 13 6 27 13
29 23 10 106 7 130 -4z m167 1 c0 -7 6 -7 19 0 34 18 80 12 106 -15 23 -23 25
-31 25 -130 l0 -105 -35 0 -35 0 0 84 c0 97 -5 116 -30 116 -46 0 -50 -8 -50
-106 l0 -94 -35 0 -35 0 0 130 0 130 35 0 c19 0 35 -5 35 -10z m635 -15 c23
-22 25 -31 25 -129 l0 -105 -77 0 c-101 1 -123 14 -123 74 0 55 17 73 81 81
39 5 49 10 47 23 -2 12 -17 17 -61 19 -53 3 -57 5 -57 27 0 27 13 32 88 34 44
1 57 -3 77 -24z m225 -6 c0 -22 -5 -29 -19 -29 -48 0 -51 -7 -51 -106 l0 -94
-40 0 -40 0 0 129 0 130 75 -1 75 -1 0 -28z m1093 20 c38 -19 57 -52 57 -96
l0 -43 -75 0 c-57 0 -75 -3 -75 -14 0 -27 29 -39 85 -34 54 5 55 4 55 -23 0
-31 -18 -39 -97 -39 -40 0 -58 5 -79 24 -24 20 -28 32 -32 91 -5 75 7 108 48
130 31 17 84 19 113 4z m-383 -125 l0 -125 -37 3 -38 3 -3 123 -3 122 41 0 40
0 0 -126z"/>
</g>
</svg>
