<?xml version="1.0" standalone="no"?>
<!DOCTYPE svg PUBLIC "-//W3C//DTD SVG 20010904//EN"
 "http://www.w3.org/TR/2001/REC-SVG-20010904/DTD/svg10.dtd">
<svg version="1.0" xmlns="http://www.w3.org/2000/svg"
 width="267.000000pt" height="189.000000pt" viewBox="0 0 267.000000 189.000000"
 preserveAspectRatio="xMidYMid meet">
<metadata>
Created by potrace 1.15, written by Peter Selinger 2001-2017
</metadata>
<g transform="translate(0.000000,189.000000) scale(0.100000,-0.100000)"
fill="#000000" stroke="none">
<path d="M903 1095 c-51 -22 -56 -81 -9 -103 13 -6 44 -14 70 -17 91 -14 74
-73 -18 -62 -23 3 -49 8 -58 12 -14 5 -18 2 -18 -13 0 -17 9 -22 56 -28 105
-13 168 27 144 90 -9 24 -40 38 -112 51 -44 7 -55 20 -37 42 13 15 82 15 122
-2 13 -5 17 -2 17 13 0 32 -98 43 -157 17z"/>
<path d="M1185 1095 c-55 -20 -85 -56 -85 -106 0 -29 7 -47 24 -64 52 -52 197
-58 204 -8 3 22 3 22 -33 7 -64 -26 -118 -1 -131 62 -12 60 63 110 129 85 23
-9 27 -8 27 8 0 34 -64 41 -135 16z"/>
<path d="M1412 1090 c-108 -49 -81 -187 41 -205 154 -22 229 153 90 211 -44
19 -80 17 -131 -6z m109 -23 c46 -35 47 -101 2 -137 -33 -26 -56 -25 -88 3
-71 61 12 191 86 134z"/>
<path d="M360 1080 c0 -17 5 -18 51 -13 l50 6 -3 -92 -3 -91 33 0 32 0 0 91 0
92 45 -5 c39 -5 45 -3 45 13 0 18 -9 19 -125 19 -117 0 -125 -1 -125 -20z"/>
<path d="M650 995 l0 -105 95 0 c86 0 95 2 95 19 0 17 -6 18 -65 13 l-65 -5 0
32 c0 30 2 31 40 31 29 0 40 4 40 15 0 11 -11 15 -40 15 -38 0 -40 1 -40 31
l0 31 55 -4 c48 -4 55 -2 55 14 0 16 -9 18 -85 18 l-85 0 0 -105z"/>
<path d="M1730 995 l0 -105 54 0 c36 0 60 5 70 16 20 20 21 68 1 84 -11 9 -13
16 -5 24 5 5 10 22 10 38 0 34 -24 48 -84 48 l-46 0 0 -105z"/>
</g>
</svg>
