<?xml version="1.0" standalone="no"?>
<!DOCTYPE svg PUBLIC "-//W3C//DTD SVG 20010904//EN"
 "http://www.w3.org/TR/2001/REC-SVG-20010904/DTD/svg10.dtd">
<svg version="1.0" xmlns="http://www.w3.org/2000/svg"
 width="276.000000pt" height="182.000000pt" viewBox="0 0 276.000000 182.000000"
 preserveAspectRatio="xMidYMid meet">
<metadata>
Created by potrace 1.15, written by Peter Selinger 2001-2017
</metadata>
<g transform="translate(0.000000,182.000000) scale(0.100000,-0.100000)"
fill="#000000" stroke="none">
<path d="M1893 1722 c-6 -4 -13 -23 -15 -41 -2 -19 -9 -37 -17 -39 -11 -4 -13
2 -8 25 3 17 1 35 -6 42 -14 14 -107 15 -107 1 0 -5 6 -10 14 -10 8 0 24 -9
37 -20 l24 -19 -27 -1 c-38 0 -44 -17 -9 -25 36 -8 53 -26 41 -45 -7 -11 -14
-12 -34 -2 -23 10 -26 9 -26 -9 0 -11 -7 -22 -15 -25 -33 -13 -11 -24 49 -24
123 0 164 36 151 134 -8 59 -24 76 -52 58z"/>
<path d="M815 1710 c-3 -6 1 -12 9 -15 52 -16 52 -15 18 -37 -17 -11 -32 -24
-32 -28 0 -5 20 -10 45 -12 l45 -3 -40 -49 c-22 -26 -38 -52 -35 -57 6 -9 43
3 79 26 27 18 41 7 32 -23 -4 -12 -16 -17 -38 -17 -23 0 -34 -5 -36 -18 -5
-25 16 -47 44 -47 19 0 24 5 24 25 0 18 5 25 19 25 11 0 23 5 26 10 12 19 25
10 25 -17 0 -16 4 -34 9 -42 7 -11 11 -10 20 7 6 11 11 29 11 40 0 26 11 34
27 20 14 -12 26 -3 36 27 2 5 18 -3 36 -18 18 -15 37 -27 42 -27 14 0 11 33
-7 69 -20 40 -14 46 27 32 75 -26 90 -5 34 49 -19 19 -35 38 -35 42 0 5 14 14
30 19 45 16 38 33 -11 25 -23 -4 -50 -11 -61 -17 -19 -10 -19 -12 11 -43 35
-36 32 -50 -6 -35 -46 17 -53 5 -28 -55 8 -19 8 -19 -15 -3 -32 22 -40 21 -40
-3 0 -24 -15 -26 -24 -3 -8 19 -22 8 -29 -22 -4 -18 -5 -18 -6 2 -1 30 -20 39
-36 17 -13 -18 -14 -17 -15 9 0 29 -10 33 -41 17 -25 -14 -25 2 1 25 27 24 25
35 -4 35 -33 0 -41 16 -16 32 11 7 20 18 20 24 0 21 -103 33 -115 14z"/>
<path d="M1540 1707 c0 -5 -14 -5 -32 -2 l-32 7 16 -24 c12 -18 14 -28 6 -36
-8 -8 -8 -15 1 -25 9 -11 8 -17 -5 -27 -14 -12 -14 -14 0 -22 13 -7 14 -13 5
-29 -14 -27 -6 -34 14 -14 14 14 17 14 26 -2 8 -13 13 -15 19 -6 5 8 13 9 22
3 27 -17 96 -11 123 10 49 39 44 132 -9 166 -24 16 -154 16 -154 1z"/>
<path d="M1095 1478 c-29 -16 -35 -30 -19 -42 8 -7 11 -20 8 -33 -7 -26 -22
-30 -30 -8 -9 23 -24 18 -24 -9 0 -26 33 -56 61 -56 9 0 28 9 42 20 30 24 37
25 37 7 0 -8 8 -21 18 -30 34 -31 89 -14 62 18 -7 8 -9 23 -5 32 7 17 8 16 15
-2 7 -16 9 -13 9 16 1 51 -21 69 -60 46 -29 -16 -30 -16 -39 8 -5 13 -18 29
-29 34 -24 13 -21 13 -46 -1z"/>
<path d="M1684 1346 c15 -78 82 -115 162 -91 44 13 47 13 70 -10 27 -27 29
-37 14 -66 -17 -31 -30 -22 -30 21 0 45 -11 51 -34 18 -21 -30 -20 -35 9 -62
16 -15 23 -30 19 -40 -10 -27 -19 -19 -43 38 -14 35 -30 57 -48 65 -38 17 -41
5 -6 -32 33 -35 63 -77 63 -89 0 -9 -92 92 -106 116 -20 38 -35 31 -32 -15 3
-40 5 -43 46 -57 44 -14 91 -70 93 -109 0 -15 2 -15 16 5 19 26 38 29 48 5 6
-17 7 -17 21 1 20 28 18 66 -4 66 -10 0 -23 -5 -30 -12 -22 -22 -12 3 15 39
46 60 38 92 -40 168 -37 36 -73 65 -80 66 -6 0 -38 2 -70 3 l-59 2 6 -30z"/>
<path d="M1137 1323 c-4 -3 -7 -15 -7 -26 0 -20 -1 -20 -24 2 -29 27 -60 24
-64 -6 -2 -16 1 -20 15 -17 10 3 27 -2 38 -10 19 -15 18 -15 -15 -16 -40 0
-60 -15 -60 -44 0 -18 1 -18 18 -3 9 8 29 19 45 22 26 7 27 6 17 -20 -16 -42
10 -152 40 -170 22 -14 31 7 14 33 -19 29 -26 139 -9 144 6 2 14 -12 20 -29
11 -40 19 -41 41 -8 16 25 16 27 -6 50 l-23 25 26 0 c14 0 33 -7 41 -16 15
-14 16 -13 16 15 0 35 -24 47 -65 31 -15 -6 -30 -8 -33 -6 -3 3 3 8 12 12 16
6 16 8 0 25 -18 20 -27 23 -37 12z"/>
<path d="M924 1175 c-7 -19 -14 -39 -14 -45 0 -5 -4 -10 -9 -10 -5 0 -5 16 0
37 4 21 6 39 4 41 -9 10 -25 -12 -31 -43 -3 -19 -11 -35 -16 -35 -6 0 -8 11
-6 25 8 41 -10 39 -21 -2 -11 -40 -4 -140 11 -149 17 -11 39 19 36 49 -4 35
16 47 31 19 8 -15 4 -29 -19 -66 -53 -82 -50 -142 8 -193 50 -42 59 7 12 60
-38 44 -40 72 -5 63 23 -6 24 -4 19 22 -4 20 3 46 24 88 37 74 55 135 42 148
-5 5 -15 -7 -26 -33 -21 -53 -38 -54 -19 0 18 49 18 59 4 59 -5 0 -17 -16 -25
-35z"/>
<path d="M1240 1182 c0 -12 -13 -31 -30 -44 -38 -28 -38 -46 2 -81 33 -28 33
-28 7 -23 -29 6 -39 -6 -39 -50 0 -35 45 -74 84 -73 17 0 25 3 18 6 -26 10
-33 41 -17 72 19 38 19 60 -1 82 -15 16 -15 20 0 41 21 30 20 51 -4 73 -19 18
-20 17 -20 -3z"/>
<path d="M1028 1162 c-25 -30 -33 -54 -40 -122 -2 -17 -9 -25 -21 -24 -21 2
-23 -24 -2 -32 27 -11 45 16 46 70 l1 51 13 -40 c18 -54 18 -75 -1 -75 -23 0
-11 -24 13 -28 31 -5 34 20 13 92 -10 36 -15 66 -10 66 4 0 11 -11 14 -25 4
-14 20 -48 37 -75 30 -48 32 -83 4 -60 -18 15 -31 -6 -15 -25 16 -20 56 -19
64 1 11 28 7 40 -36 104 -29 42 -44 77 -48 108 l-5 46 -27 -32z"/>
<path d="M1495 1170 c-10 -30 2 -53 37 -73 24 -14 28 -21 19 -30 -9 -9 -14 -9
-20 2 -15 24 -35 6 -37 -32 -1 -43 4 -45 41 -15 l27 21 -6 -21 c-5 -15 -1 -24
13 -31 24 -13 35 0 26 29 -5 14 -2 20 9 20 9 0 16 -7 16 -16 0 -11 6 -14 23
-8 48 14 50 20 22 42 -30 24 -45 28 -45 12 0 -5 -7 -10 -15 -10 -27 0 -16 31
15 41 38 14 38 22 1 36 -33 12 -41 8 -41 -19 0 -10 -4 -18 -10 -18 -5 0 -10
13 -10 30 0 23 -7 33 -29 45 -28 14 -30 14 -36 -5z"/>
<path d="M1680 1113 c0 -7 -8 -13 -17 -13 -13 0 -9 -7 15 -26 42 -34 40 -51
-9 -73 -30 -14 -36 -20 -24 -25 9 -3 13 -10 10 -16 -3 -5 -2 -10 4 -10 5 0 16
-3 25 -6 12 -5 16 0 16 19 0 13 7 30 15 37 21 18 30 -11 16 -51 -9 -27 -9 -30
5 -25 9 4 23 1 30 -5 11 -9 14 -7 14 10 0 11 6 21 13 21 6 0 0 10 -15 21 -16
11 -28 27 -28 35 0 25 29 13 46 -18 9 -17 11 -17 26 2 11 12 13 22 7 26 -6 4
-6 11 2 20 10 13 6 14 -29 8 -48 -8 -58 9 -14 24 15 6 21 11 14 11 -9 1 -11 8
-6 23 6 20 5 21 -9 10 -12 -11 -17 -11 -24 0 -5 9 -9 2 -13 -20 -6 -42 -26
-41 -22 1 2 28 -1 32 -23 32 -14 0 -25 -6 -25 -12z"/>
<path d="M1280 966 c0 -13 10 -31 23 -39 19 -14 20 -18 7 -26 -23 -16 -68 -13
-101 6 -35 21 -45 13 -33 -29 14 -46 68 -81 114 -73 46 8 80 46 80 91 0 29 -6
38 -35 55 -19 12 -35 25 -35 30 0 5 -4 9 -10 9 -5 0 -10 -11 -10 -24z"/>
<path d="M1464 970 c-11 -4 -33 -23 -48 -41 -25 -29 -28 -39 -24 -87 6 -63 35
-99 92 -112 69 -15 146 28 146 82 0 17 -5 18 -44 13 -32 -5 -54 -2 -81 11 -31
14 -38 15 -46 3 -5 -8 -9 -20 -9 -26 0 -15 42 -27 75 -21 15 3 26 0 29 -9 9
-23 9 -23 -37 -23 -82 0 -117 73 -53 111 22 13 33 26 29 35 -4 10 3 14 24 14
26 0 30 3 30 30 0 27 -3 30 -31 29 -17 0 -40 -4 -52 -9z"/>
<path d="M1770 893 c-8 -3 -32 -21 -53 -39 -20 -19 -44 -34 -52 -34 -8 0 -15
-9 -15 -20 0 -30 29 -25 67 12 18 17 35 29 39 26 3 -4 -11 -21 -30 -40 -39
-35 -38 -52 4 -62 28 -7 37 -2 67 37 12 15 24 24 27 19 5 -9 -34 -55 -60 -70
-19 -10 -11 -32 11 -32 21 0 73 60 86 98 15 45 -3 87 -43 101 -17 6 -31 11
-32 10 -1 0 -8 -3 -16 -6z"/>
<path d="M1032 828 c-53 -26 -28 -110 36 -116 25 -3 34 2 46 25 14 26 15 26
16 6 0 -13 -10 -29 -25 -39 -53 -35 -138 35 -120 99 6 21 5 21 -15 -3 -30 -34
-21 -85 20 -122 24 -22 40 -28 79 -28 58 0 81 21 81 74 0 51 -23 92 -61 105
-18 6 -32 11 -33 10 -1 0 -11 -5 -24 -11z"/>
<path d="M1376 704 c-10 -14 -32 -32 -50 -39 -18 -8 -38 -21 -46 -29 -17 -21
-49 -20 -57 2 -8 22 -34 52 -45 52 -5 0 -7 -4 -4 -8 10 -16 -25 -52 -50 -52
-13 0 -24 -3 -24 -6 0 -13 35 -33 58 -34 13 0 43 -11 66 -25 57 -33 121 -42
169 -22 21 9 39 12 42 6 7 -10 55 -12 79 -3 28 11 17 24 -18 24 -22 0 -45 9
-64 25 -35 29 -40 30 -61 10 -9 -8 -37 -17 -61 -20 l-45 -6 45 17 c25 9 54 25
66 35 22 20 44 25 44 9 0 -16 43 -50 64 -50 14 0 28 14 43 41 30 55 18 75 -42
71 -28 -3 -52 2 -68 12 -23 16 -25 15 -41 -10z"/>
<path d="M1665 685 c-16 -8 -44 -12 -61 -9 -25 5 -32 1 -42 -21 -27 -59 -6
-90 55 -79 45 8 99 38 107 60 3 9 6 27 6 40 0 28 -18 30 -65 9z"/>
<path d="M1330 388 c-21 -47 -26 -122 -10 -164 8 -21 7 -31 -6 -45 -38 -42
-74 -16 -74 52 0 26 -4 50 -9 54 -14 8 -41 -24 -41 -49 0 -12 -6 -31 -14 -41
-19 -26 -39 -9 -55 45 -16 53 -35 60 -66 24 -14 -16 -25 -32 -25 -36 0 -19
-18 -5 -24 18 -10 40 -30 23 -47 -44 -21 -81 -12 -94 39 -54 21 17 45 38 52
47 20 24 36 18 54 -19 8 -18 23 -39 32 -47 14 -12 20 -10 41 15 l24 28 24 -26
c28 -30 46 -32 86 -9 23 14 33 15 47 6 10 -6 54 -11 98 -11 82 0 115 11 143
51 14 19 15 18 33 -17 41 -81 128 -10 128 105 0 33 -3 40 -17 37 -14 -2 -19
-15 -21 -48 -4 -67 -11 -90 -27 -90 -10 0 -21 21 -32 60 -9 33 -22 60 -28 60
-7 0 -25 -25 -40 -56 -16 -32 -37 -60 -51 -66 -34 -16 -42 -2 -16 25 26 27 29
69 6 91 -18 19 -20 19 -46 5 -23 -12 -48 -66 -48 -104 0 -29 -29 -35 -50 -10
-10 12 -8 24 9 64 23 53 28 139 11 172 -6 11 -21 19 -36 19 -20 0 -29 -9 -44
-42z"/>
<path d="M880 385 c-8 -9 -10 -27 -6 -47 17 -80 17 -99 6 -133 -16 -47 -52
-72 -85 -57 -35 16 -50 79 -38 166 8 55 7 69 -5 73 -54 21 -76 -183 -25 -239
25 -28 79 -39 121 -25 54 17 82 78 82 173 0 40 -3 79 -6 88 -8 20 -28 21 -44
1z"/>
<path d="M2062 304 c-12 -8 -33 -36 -46 -62 -25 -49 -32 -46 -38 12 -3 34 -25
46 -34 19 -25 -80 -67 -124 -101 -104 -17 9 -17 10 2 17 55 20 71 66 35 99
-17 15 -24 16 -48 6 -34 -14 -52 -48 -52 -95 0 -71 78 -90 136 -32 l33 33 12
-34 c6 -19 16 -32 22 -30 6 2 26 32 43 67 35 67 53 85 68 70 16 -16 46 -12 53
6 7 19 -20 44 -47 44 -8 0 -26 -7 -38 -16z"/>
</g>
</svg>
